<svg xmlns="http://www.w3.org/2000/svg" viewBox="0 0 513 513" width="50" height="50"><style>tspan { white-space:pre }.shp0 { fill: #3053d4 } </style><path fill-rule="evenodd" class="shp0" d="M373.41 0C449.83 0 512 62.17 512 138.59L512 373.41C512 449.83 449.83 512 373.41 512L138.59 512C62.17 512 0 449.83 0 373.41L0 138.59C0 62.17 62.17 0 138.59 0L373.41 0ZM256 396C333.2 396 396 333.2 396 256C396 178.8 333.2 116 256 116C178.8 116 116 178.8 116 256C116 333.2 178.8 396 256 396ZM440.71 107.65C440.71 84.84 422.16 66.28 399.34 66.28C376.53 66.28 357.98 84.84 357.98 107.65C357.98 130.46 376.53 149.02 399.34 149.02C422.16 149.02 440.71 130.46 440.71 107.65Z" /><path class="shp0" d="M256 146.02C195.36 146.02 146.02 195.36 146.02 256C146.02 316.64 195.36 365.98 256 365.98C316.64 365.98 365.98 316.64 365.98 256C365.98 195.36 316.64 146.02 256 146.02L256 146.02Z" /><path class="shp0" d="M399.34 96.3C393.09 96.3 387.99 101.39 387.99 107.65C387.99 113.91 393.09 119 399.34 119C405.61 119 410.7 113.91 410.7 107.65C410.7 101.39 405.61 96.3 399.34 96.3Z" /></svg>