<svg xmlns="http://www.w3.org/2000/svg" viewBox="0 0 24 24" width="50" height="50"><style>tspan { white-space:pre }.shp0 { fill: #3053d4 } </style><path class="shp0" d="M4.72 12.88C4.11 14.09 4.8 14.66 6.39 15.65C7.74 16.48 9.61 16.78 10.81 16.91C10.31 17.38 12.56 15.22 6.08 21.45C4.71 22.76 6.92 24.88 8.3 23.59L12.01 20C13.44 21.37 14.8 22.69 15.73 23.59C17.1 24.89 19.31 22.79 17.95 21.45C17.85 21.36 12.92 16.62 13.22 16.91C14.43 16.79 16.27 16.47 17.6 15.65L17.6 15.65C19.19 14.66 19.89 14.09 19.28 12.88C18.92 12.2 17.93 11.63 16.62 12.61C16.62 12.61 14.85 13.97 12 13.97C9.15 13.97 7.38 12.61 7.38 12.61C6.07 11.62 5.08 12.2 4.72 12.88L4.72 12.88Z" /><path fill-rule="evenodd" class="shp0" d="M5.68 6.08C5.68 2.72 8.52 0 12 0C15.48 0 18.32 2.72 18.32 6.08C18.32 9.42 15.48 12.14 12 12.14C8.52 12.14 5.68 9.42 5.68 6.08ZM12 3.08C10.29 3.08 8.9 4.42 8.9 6.08C8.9 7.72 10.29 9.06 12 9.06C13.71 9.06 15.1 7.72 15.1 6.08C15.1 4.42 13.71 3.08 12 3.08Z" /></svg>