<svg xmlns="http://www.w3.org/2000/svg" viewBox="0 0 512 512" width="50" height="50"><style>tspan { white-space:pre }.shp0 { fill: #3053d4 } </style><g ><g ><path class="shp0" d="M512 97.25C492.96 105.6 472.67 111.14 451.52 113.82C473.28 100.83 489.89 80.42 497.7 55.81C477.41 67.9 455.01 76.45 431.14 81.22C411.87 60.7 384.42 48 354.46 48C296.35 48 249.57 95.17 249.57 152.99C249.57 161.31 250.27 169.31 252 176.93C164.74 172.67 87.52 130.85 35.65 67.14C26.59 82.85 21.28 100.83 21.28 120.19C21.28 156.54 40 188.77 67.9 207.42C51.04 207.1 34.5 202.21 20.48 194.5C20.48 194.82 20.48 195.23 20.48 195.65C20.48 246.66 56.86 289.02 104.58 298.78C96.03 301.12 86.72 302.24 77.06 302.24C70.34 302.24 63.55 301.86 57.18 300.45C70.78 342.02 109.38 372.58 155.26 373.57C119.55 401.5 74.21 418.34 25.12 418.34C16.51 418.34 8.26 417.95 0 416.9C46.5 446.88 101.6 464 161.02 464C354.18 464 459.78 304 459.78 165.31C459.78 160.67 459.62 156.19 459.39 151.74C480.22 136.96 497.73 118.5 512 97.25Z" /></g></g><g ></g><g ></g><g ></g><g ></g><g ></g><g ></g><g ></g><g ></g><g ></g><g ></g><g ></g><g ></g><g ></g><g ></g><g ></g></svg>