<svg xmlns="http://www.w3.org/2000/svg" viewBox="0 0 512 512" width="50" height="50"><style>tspan { white-space:pre }.shp0 { fill: #3053d4 } </style><g ><g ><path class="shp0" d="M507.4 370.47C506.02 368.17 497.51 349.67 456.55 311.65C413.67 271.85 419.43 278.31 471.08 209.48C502.54 167.56 515.11 141.96 511.18 131.01C507.43 120.58 484.3 123.33 484.3 123.33L407.37 123.78C407.37 123.78 401.67 123.01 397.42 125.54C393.29 128.04 390.63 133.8 390.63 133.8C390.63 133.8 378.44 166.25 362.18 193.83C327.91 252.04 314.18 255.11 308.58 251.49C295.56 243.08 298.82 217.64 298.82 199.59C298.82 143.17 307.37 119.65 282.15 113.57C273.77 111.56 267.62 110.21 246.22 109.99C218.76 109.7 195.5 110.09 182.34 116.52C173.58 120.81 166.82 130.37 170.95 130.92C176.04 131.59 187.56 134.02 193.67 142.34C201.58 153.06 201.29 177.19 201.29 177.19C201.29 177.19 205.83 243.59 190.7 251.85C180.3 257.51 166.06 245.96 135.5 193.13C119.85 166.09 108.01 136.17 108.01 136.17C108.01 136.17 105.73 130.6 101.67 127.62C96.74 124.01 89.83 122.85 89.83 122.85L16.68 123.3C16.68 123.3 5.7 123.62 1.67 128.39C-1.91 132.65 1.38 141.41 1.38 141.41C1.38 141.41 58.66 275.4 123.5 342.95C182.98 404.87 250.5 400.81 250.5 400.81L281.09 400.81C281.09 400.81 290.34 399.78 295.05 394.69C299.4 390.02 299.24 381.25 299.24 381.25C299.24 381.25 298.63 340.2 317.7 334.15C336.49 328.2 360.61 373.83 386.18 391.4C405.51 404.68 420.2 401.77 420.2 401.77L488.58 400.81C488.58 400.81 524.36 398.6 507.4 370.47Z" /></g></g><g ></g><g ></g><g ></g><g ></g><g ></g><g ></g><g ></g><g ></g><g ></g><g ></g><g ></g><g ></g><g ></g><g ></g><g ></g></svg>