<svg xmlns="http://www.w3.org/2000/svg" viewBox="0 0 24 24" width="50" height="50"><style>tspan { white-space:pre }.shp0 { fill: #3053d4 } </style><path fill-rule="evenodd" class="shp0" d="M23.47 5.93C23.82 7.82 24 9.78 24 11.77C24 11.86 24 11.94 24 12C24 12.08 24 12.15 24 12.23C24 14.22 23.82 16.18 23.5 17.87L23.5 17.89C23.21 18.9 22.43 19.7 21.41 19.99C19.52 20.5 12.01 20.5 12.01 20.5C12.01 20.5 4.48 20.5 2.61 19.99L2.59 19.99C1.59 19.7 0.81 18.9 0.52 17.87L0.55 18.07C-0.18 14.16 -0.18 9.78 0.52 6.13L0.53 6.1C0.81 5.1 1.6 4.3 2.61 4.01C4.5 3.49 12.01 3.5 12.01 3.5C12.01 3.5 19.54 3.5 21.41 4.01L21.43 4.01C22.43 4.3 23.21 5.1 23.5 6.13L23.47 5.93ZM15.87 12.01L9.61 8.36L9.61 15.65L15.87 12.01Z" /></svg>