<svg xmlns="http://www.w3.org/2000/svg" viewBox="0 0 18 15" width="50" height="42">
	<style>
		tspan { white-space:pre }
		.shp0 { fill: #3053d4 } 
	</style>
	<path class="shp0" d="M0 13.5C0 13.7 0.04 13.89 0.11 14.07C0.19 14.26 0.3 14.42 0.44 14.56C0.58 14.7 0.74 14.81 0.93 14.89C1.11 14.96 1.3 15 1.5 15L16.5 15C16.9 15 17.28 14.84 17.56 14.56C17.84 14.28 18 13.9 18 13.5C18 13.1 17.84 12.72 17.56 12.44C17.28 12.16 16.9 12 16.5 12L1.5 12C1.3 12 1.11 12.04 0.93 12.11C0.74 12.19 0.58 12.3 0.44 12.44C0.3 12.58 0.19 12.74 0.11 12.93C0.04 13.11 0 13.3 0 13.5L0 13.5Z" />
	<path class="shp0" d="M0 7.5C0 7.7 0.04 7.89 0.11 8.07C0.19 8.26 0.3 8.42 0.44 8.56C0.58 8.7 0.74 8.81 0.93 8.89C1.11 8.96 1.3 9 1.5 9L12.5 9C12.9 9 13.28 8.84 13.56 8.56C13.84 8.28 14 7.9 14 7.5C14 7.1 13.84 6.72 13.56 6.44C13.28 6.16 12.9 6 12.5 6L1.5 6C1.3 6 1.11 6.04 0.93 6.11C0.74 6.19 0.58 6.3 0.44 6.44C0.3 6.58 0.19 6.74 0.11 6.93C0.04 7.11 0 7.3 0 7.5L0 7.5Z" />
	<path class="shp0" d="M1.5 3C1.1 3 0.72 2.84 0.44 2.56C0.16 2.28 0 1.9 0 1.5C0 1.1 0.16 0.72 0.44 0.44C0.72 0.16 1.1 0 1.5 0L8.5 0C8.9 0 9.28 0.16 9.56 0.44C9.84 0.72 10 1.1 10 1.5C10 1.9 9.84 2.28 9.56 2.56C9.28 2.84 8.9 3 8.5 3L1.5 3Z" />
</svg>