<svg xmlns="http://www.w3.org/2000/svg" viewBox="0 0 61 61" width="100" height="100">
	<style>
		tspan { white-space:pre }
		.shp0 { fill: #ffffff } 
	</style>
	<g >
		<path class="shp0" d="M57.12 51.89L16.92 51.89C15.26 51.89 13.92 50.55 13.92 48.89C13.92 47.24 15.26 45.89 16.92 45.89L57.12 45.89C58.78 45.89 60.12 47.24 60.12 48.89C60.12 50.55 58.78 51.89 57.12 51.89Z" />
		<path class="shp0" d="M57.12 33.06L16.92 33.06C15.26 33.06 13.92 31.72 13.92 30.06C13.92 28.4 15.26 27.06 16.92 27.06L57.12 27.06C58.78 27.06 60.12 28.4 60.12 30.06C60.12 31.72 58.78 33.06 57.12 33.06Z" />
		<path class="shp0" d="M57.12 14.23L16.92 14.23C15.26 14.23 13.92 12.89 13.92 11.23C13.92 9.57 15.26 8.23 16.92 8.23L57.12 8.23C58.78 8.23 60.12 9.57 60.12 11.23C60.12 12.89 58.78 14.23 57.12 14.23Z" />
		<path class="shp0" d="M4.03 15.49C1.8 15.49 0 13.69 0 11.46C0 9.23 1.8 7.43 4.03 7.43C6.26 7.43 8.06 9.23 8.06 11.46C8.06 13.69 6.26 15.49 4.03 15.49Z" />
		<path class="shp0" d="M4.03 34.09C1.8 34.09 0 32.29 0 30.06C0 27.83 1.8 26.03 4.03 26.03C6.26 26.03 8.06 27.83 8.06 30.06C8.06 32.29 6.26 34.09 4.03 34.09Z" />
		<path class="shp0" d="M4.03 52.69C1.8 52.69 0 50.89 0 48.66C0 46.43 1.8 44.63 4.03 44.63C6.26 44.63 8.06 46.43 8.06 48.66C8.06 50.89 6.26 52.69 4.03 52.69Z" />
	</g>
</svg>