<svg xmlns="http://www.w3.org/2000/svg" viewBox="0 0 493 493" width="50" height="50"><style>tspan { white-space:pre }.shp0 { fill: #3053d4 } </style><g ><g ><path class="shp0" d="M382.68 226.8L163.73 7.86C158.67 2.79 151.91 0 144.7 0C137.49 0 130.73 2.79 125.67 7.86L109.54 23.98C99.05 34.48 99.05 51.56 109.54 62.04L293.4 245.9L109.34 429.96C104.27 435.03 101.48 441.78 101.48 448.99C101.48 456.2 104.27 462.96 109.34 468.03L125.46 484.14C130.53 489.21 137.29 492 144.49 492C151.7 492 158.46 489.21 163.53 484.14L382.68 265C387.75 259.92 390.54 253.13 390.53 245.91C390.54 238.67 387.75 231.88 382.68 226.8Z" /></g></g></svg>