<svg xmlns="http://www.w3.org/2000/svg" viewBox="0 0 512 512" width="100" height="100">
	<style>
		tspan { white-space:pre }
		.shp0 { fill: #ffffff } 
	</style>
	<path class="shp0" d="M506.89 114.74C502.91 109.64 496.8 106.66 490.33 106.66L90.53 106.66L84.58 40.46C83.61 29.63 74.54 21.33 63.67 21.33L21 21.33C9.4 21.33 0 30.74 0 42.33C0 53.93 9.4 63.33 21 63.33L44.47 63.33L67.49 319.77C67.49 320.08 67.48 320.37 67.49 320.68C67.54 321.48 67.65 322.27 67.78 323.05L68.62 332.42C68.64 332.6 68.66 332.78 68.68 332.95C71.23 355.06 82.53 374.22 98.87 387.16C90.4 397.97 85.33 411.57 85.33 426.33C85.33 461.44 113.9 490 149 490C184.11 490 212.67 461.44 212.67 426.33C212.67 418.73 211.32 411.43 208.87 404.67L323.8 404.67C321.35 411.43 320 418.73 320 426.33C320 461.44 348.56 490 383.67 490C418.77 490 447.34 461.44 447.34 426.33C447.34 391.23 418.77 362.67 383.67 362.67L149.14 362.67C133.19 362.67 119.29 353.04 113.29 339.02L448.9 319.3C458.06 318.76 465.81 312.33 468.04 303.43L510.71 132.76C512.27 126.48 510.87 119.84 506.89 114.74L506.89 114.74Z" />
</svg>