<svg xmlns="http://www.w3.org/2000/svg" viewBox="0 0 512 512" width="15" height="15"><style>tspan { white-space:pre }.shp0 { fill: #3053d4 } </style><path fill-rule="evenodd" class="shp0" d="M512 256C512 397.16 397.16 512 256 512C114.84 512 0 397.16 0 256C0 114.84 114.84 0 256 0C397.16 0 512 114.84 512 256ZM377.75 388.41C386.09 380.07 386.09 366.59 377.75 358.25L277.33 257.84L277.33 128C277.33 116.2 267.78 106.67 256 106.67C244.22 106.67 234.67 116.2 234.67 128L234.67 266.67C234.67 272.34 236.91 277.76 240.92 281.75L347.59 388.41C351.74 392.57 357.21 394.67 362.67 394.67C368.13 394.67 373.59 392.57 377.75 388.41Z" /></svg>