<svg xmlns="http://www.w3.org/2000/svg" viewBox="0 0 512 512" width="20" height="20"><style>tspan { white-space:pre }.shp0 { fill: #3053d4 } </style><g ><g ><g ><path class="shp0" d="M10.69 95.16C80.96 154.67 204.26 259.37 240.5 292.01C245.37 296.42 250.58 298.66 256 298.66C261.41 298.66 266.62 296.44 271.47 292.05C307.74 259.38 431.04 154.67 501.31 95.16C505.69 91.46 506.35 84.96 502.81 80.44C494.63 69.99 482.42 64 469.33 64L42.67 64C29.58 64 17.38 69.99 9.19 80.44C5.65 84.96 6.31 91.46 10.69 95.16Z" /><path class="shp0" d="M505.81 127.41C502.03 125.65 497.58 126.26 494.44 128.95C448.42 167.96 387.78 219.5 342.05 258.83C339.65 260.9 338.29 263.93 338.34 267.1C338.4 270.27 339.87 273.26 342.34 275.24C384.83 309.27 448.87 356.08 495.1 389.35C496.95 390.69 499.14 391.36 501.33 391.36C503 391.36 504.67 390.98 506.2 390.19C509.76 388.36 512 384.7 512 380.7L512 137.08C512 132.93 509.58 129.15 505.81 127.41Z" /><path class="shp0" d="M16.9 389.35C63.15 356.08 127.19 309.27 169.67 275.24C172.15 273.26 173.61 270.27 173.67 267.1C173.72 263.93 172.36 260.9 169.96 258.83C124.23 219.5 63.58 167.96 17.56 128.95C14.4 126.26 9.94 125.67 6.19 127.41C2.42 129.15 0 132.93 0 137.08L0 380.7C0 384.7 2.24 388.36 5.8 390.19C7.33 390.98 9 391.37 10.67 391.37C12.87 391.37 15.05 390.69 16.9 389.35Z" /><path class="shp0" d="M498.93 418.38C454.27 386.43 372.01 326.87 322.91 287.01C318.91 283.75 313.11 283.85 309.18 287.25C299.54 295.66 291.48 302.74 285.76 307.88C268.2 323.74 243.82 323.74 226.22 307.86C220.52 302.73 212.46 295.62 202.82 287.25C198.92 283.83 193.11 283.73 189.1 287.01C140.17 326.73 57.81 386.36 13.08 418.37C10.59 420.17 8.99 422.93 8.68 425.98C8.37 429.03 9.38 432.06 11.48 434.31C19.55 443.01 30.93 448 42.67 448L469.33 448C481.07 448 492.44 443.01 500.53 434.31C502.61 432.07 503.64 429.04 503.33 425.99C503.02 422.94 501.42 420.17 498.93 418.38Z" /></g></g></g><g ></g><g ></g><g ></g><g ></g><g ></g><g ></g><g ></g><g ></g><g ></g><g ></g><g ></g><g ></g><g ></g><g ></g><g ></g></svg>