<svg xmlns="http://www.w3.org/2000/svg" viewBox="0 0 1104 991" width="150" height="135"><defs><clipPath clipPathUnits="userSpaceOnUse" id="cp1"><path d="M0 0L1104 0L1104 991L0 991Z" /></clipPath></defs><style>tspan { white-space:pre }.shp0 { fill: none;stroke: #000000;stroke-width: 80 } </style><g clip-path="url(#cp1)"><path class="shp0" d="M982.77 129.13C929.76 71.63 857.02 39.97 777.95 39.97C718.84 39.97 664.7 58.66 617.05 95.51C593 114.11 571.21 136.87 552 163.43C532.8 136.88 511 114.11 486.95 95.51C439.3 58.66 385.16 39.97 326.06 39.97C246.98 39.97 174.23 71.63 121.23 129.13C68.85 185.94 40 263.57 40 347.71C40 434.31 72.27 513.58 141.56 597.2C203.55 671.98 292.63 747.91 395.8 835.82C431.02 865.84 470.95 899.88 512.41 936.13C523.37 945.72 537.42 951 552 951C566.57 951 580.63 945.72 591.57 936.14C633.03 899.88 672.98 865.84 708.23 835.8C811.38 747.9 900.46 671.98 962.45 597.19C1031.73 513.58 1064 434.31 1064 347.7C1064 263.57 1035.15 185.94 982.77 129.13Z" /></g></svg>