<svg xmlns="http://www.w3.org/2000/svg" viewBox="0 0 110 110" width="110" height="110"><style>tspan { white-space:pre }.shp0 { fill: #ffffff } </style><path fill-rule="evenodd" class="shp0" d="M73.95 41.43L70.94 31.2L41.63 31.59L38.35 41.74L16.45 54.54L2.36 38.21C2.36 38.21 14.12 16.41 55.02 16.41C95.93 16.41 109.64 40.24 109.64 40.24L96.16 54.63L73.95 41.43ZM46.18 51.69L46.33 60.9L36.84 60.98L36.86 51.73L46.18 51.69ZM46.56 74.57L36.8 74.5L36.82 65.13L46.4 65.16L46.56 74.57ZM46.64 79.04L46.78 87.65L36.77 87.73L36.79 78.93L46.64 79.04ZM61.09 60.79L51.18 60.86L51.12 51.67L60.94 51.62L61.09 60.79ZM61.32 74.66L51.28 74.6L51.21 65.18L61.16 65.21L61.32 74.66ZM61.54 87.52L51.37 87.61L51.31 79.09L61.4 79.2L61.54 87.52ZM75.47 60.68L66.12 60.75L66.04 51.6L75.44 51.55L75.47 60.68ZM75.52 74.75L66.24 74.69L66.16 65.22L75.49 65.25L75.52 74.75ZM75.57 87.39L66.35 87.48L66.28 79.25L75.54 79.35L75.57 87.39Z" /></svg>