<svg xmlns="http://www.w3.org/2000/svg" viewBox="0 0 513 512" width="100" height="100">
	<style>
		tspan { white-space:pre }
		.shp0 { fill: #ffffff } 
	</style>
	<path class="shp0" d="M471.38 72.58C444.88 43.83 408.51 28 368.97 28C339.42 28 312.35 37.34 288.52 55.77C276.5 65.07 265.61 76.45 256 89.73C246.4 76.45 235.5 65.07 223.47 55.77C199.65 37.34 172.58 28 143.03 28C103.49 28 67.12 43.83 40.61 72.58C14.43 100.99 0 139.8 0 181.87C0 225.17 16.14 264.81 50.78 306.61C81.77 344.01 126.32 381.97 177.9 425.93C195.51 440.94 215.48 457.95 236.21 476.08C241.68 480.88 248.71 483.52 256 483.52C263.29 483.52 270.32 480.88 275.79 476.09C296.52 457.96 316.49 440.93 334.11 425.91C385.69 381.96 430.23 344.01 461.22 306.61C495.87 264.81 512 225.17 512 181.87C512 139.8 497.57 100.99 471.38 72.58Z" />
</svg>