<svg xmlns="http://www.w3.org/2000/svg" viewBox="0 0 98 98" width="98" height="98">
	<style>
		tspan { white-space:pre }
		.shp0 { fill: #ffffff } 
	</style>
	<g >
		<path fill-rule="evenodd" class="shp0" d="M84.83 35.97C84.83 41.15 83.77 46.09 81.68 50.66C72.69 70.34 55.44 91.12 50.37 97.02C49.99 97.46 49.44 97.71 48.86 97.71C48.27 97.71 47.72 97.46 47.34 97.02C42.27 91.12 25.02 70.34 16.03 50.66C13.94 46.09 12.88 41.15 12.88 35.97C12.88 16.14 29.02 0 48.85 0C68.69 0 84.83 16.14 84.83 35.97ZM67.54 35.97C67.54 25.67 59.16 17.29 48.85 17.29C38.55 17.29 30.17 25.67 30.17 35.97C30.17 46.28 38.55 54.66 48.85 54.66C59.16 54.66 67.54 46.28 67.54 35.97Z" />
	</g>
</svg>