<svg xmlns="http://www.w3.org/2000/svg" viewBox="0 0 401 401" width="200" height="200">
	<defs>
		<clipPath clipPathUnits="userSpaceOnUse" id="cp1">
			<path d="M0 0L401 0L401 401L0 401Z" />
		</clipPath>
	</defs>
	<style>
		tspan { white-space:pre }
		.shp0 { fill: #ffffff } 
	</style>
	<g clip-path="url(#cp1)">
		<path class="shp0" d="M161.55 119.54C151.83 122.57 138.12 128 123.87 138.12C114.47 144.8 81.36 170.19 70.71 217.09C67.28 232.21 62.8 264.48 78.45 298.64C86.25 315.65 96.48 327.54 103.75 334.77C97.84 335.14 91.27 335.21 84.13 334.77C72.84 334.07 62.93 332.23 54.71 330.12C52.16 332.41 48.75 335.03 44.39 337.35C40.35 339.5 31.04 346.65 18.58 345.12C12.96 344.43 9.36 343.99 7.23 341.5C1.72 335.09 8.1 316 22.71 297.09L36.13 307.93C32.75 302.87 28.26 295.38 24.26 285.74C13 258.57 14.11 234.61 14.97 219.67C16.54 192.37 24.12 170.28 30.97 155.16L18.58 165.48L2.58 143.29C1.59 141.42 0.09 137.97 0 133.48C-0.12 127.07 2.69 121.36 5.17 119.03C11.84 112.75 30.82 117.12 49.55 133.48C58.99 130.43 69.42 127.58 80.77 125.22C101.62 120.9 120.59 119.29 136.78 119.03L161.55 119.54ZM239.48 278.07C249.2 275.05 262.91 269.61 277.16 259.49C286.56 252.81 319.67 227.43 330.32 180.52C333.75 165.41 338.24 133.14 322.58 98.97C314.78 81.97 304.56 70.07 297.29 62.85C303.19 62.48 309.77 62.4 316.9 62.85C328.2 63.55 338.11 65.39 346.32 67.49C348.87 65.2 352.29 62.58 356.64 60.27C360.69 58.11 370 50.97 382.45 52.5C388.07 53.19 391.67 53.63 393.81 56.11C399.32 62.52 392.93 81.61 378.32 100.52L364.9 89.69C368.28 94.75 372.78 102.24 376.77 111.88C388.03 139.05 386.92 163.01 386.06 177.94C384.5 205.24 376.91 227.34 370.06 242.46L382.45 232.14L398.45 254.33C399.44 256.2 400.94 259.65 401.03 264.14C401.16 270.55 398.35 276.26 395.87 278.59C389.19 284.87 370.21 280.5 351.48 264.14C342.05 267.19 331.62 270.04 320.26 272.39C299.41 276.72 280.44 278.32 264.26 278.59L239.48 278.07ZM119.95 239.45C122.97 249.17 128.41 262.88 138.53 277.13C145.21 286.53 170.59 319.64 217.5 330.29C232.62 333.72 264.88 338.2 299.05 322.55C316.05 314.75 327.95 304.52 335.17 297.25C335.54 303.16 335.62 309.74 335.17 316.87C334.47 328.16 332.63 338.07 330.53 346.29C332.82 348.84 335.44 352.25 337.76 356.61C339.91 360.65 347.06 369.96 345.52 382.42C344.83 388.04 344.39 391.64 341.91 393.77C335.5 399.28 316.41 392.9 297.5 378.29L308.34 364.87C303.28 368.25 295.78 372.74 286.14 376.74C258.98 388 235.01 386.89 220.08 386.03C192.78 384.46 170.68 376.88 155.56 370.03L165.89 382.42L143.69 398.42C141.82 399.41 138.37 400.91 133.89 401C127.47 401.12 121.76 398.31 119.43 395.83C113.15 389.16 117.53 370.18 133.89 351.45C130.84 342.01 127.98 331.58 125.63 320.23C121.3 299.38 119.7 280.41 119.43 264.22L119.95 239.45ZM278.48 161.52C275.45 151.8 270.02 138.09 259.89 123.84C253.22 114.44 227.83 81.33 180.93 70.68C165.81 67.25 133.54 62.76 99.38 78.42C82.37 86.22 70.48 96.44 63.25 103.71C62.88 97.81 62.81 91.23 63.25 84.1C63.95 72.8 65.79 62.89 67.89 54.68C65.61 52.13 62.99 48.71 60.67 44.36C58.52 40.31 51.37 31 52.9 18.55C53.59 12.93 54.03 9.33 56.51 7.19C62.93 1.68 82.02 8.07 100.93 22.68L90.09 36.1C95.15 32.72 102.64 28.22 112.28 24.23C139.45 12.97 163.41 14.08 178.35 14.94C205.65 16.5 227.74 24.09 242.86 30.94L232.54 18.55L254.73 2.55C256.6 1.56 260.05 0.06 264.54 -0.03C270.95 -0.16 276.66 2.65 278.99 5.13C285.27 11.81 280.9 30.79 264.54 49.52C267.59 58.95 270.44 69.38 272.8 80.74C277.12 101.59 278.73 120.56 278.99 136.74L278.48 161.52Z" />
	</g>
</svg>