<svg xmlns="http://www.w3.org/2000/svg" viewBox="0 0 361 361" width="361" height="361"><style>tspan { white-space:pre }.shp0 { fill: #3053d4 } </style><g ><g ><g ><path class="shp0" d="M96.65 0L13.06 0C7.29 0 2.61 4.68 2.61 10.45L2.61 94.04C2.61 99.81 7.29 104.49 13.06 104.49L96.65 104.49C102.42 104.49 107.1 99.81 107.1 94.04L107.1 10.45C107.1 4.68 102.42 0 96.65 0Z" /><path class="shp0" d="M222.04 0L138.45 0C132.68 0 128 4.68 128 10.45L128 94.04C128 99.81 132.68 104.49 138.45 104.49L222.04 104.49C227.81 104.49 232.49 99.81 232.49 94.04L232.49 10.45C232.49 4.68 227.81 0 222.04 0Z" /><path class="shp0" d="M96.65 125.39L13.06 125.39C7.29 125.39 2.61 130.07 2.61 135.84L2.61 219.43C2.61 225.2 7.29 229.88 13.06 229.88L96.65 229.88C102.42 229.88 107.1 225.2 107.1 219.43L107.1 135.84C107.1 130.07 102.42 125.39 96.65 125.39Z" /><path class="shp0" d="M222.04 125.39L138.45 125.39C132.68 125.39 128 130.07 128 135.84L128 219.43C128 225.2 132.68 229.88 138.45 229.88L222.04 229.88C227.81 229.88 232.49 225.2 232.49 219.43L232.49 135.84C232.49 130.07 227.81 125.39 222.04 125.39Z" /><path class="shp0" d="M347.43 0L263.84 0C258.07 0 253.39 4.68 253.39 10.45L253.39 94.04C253.39 99.81 258.07 104.49 263.84 104.49L347.43 104.49C353.2 104.49 357.88 99.81 357.88 94.04L357.88 10.45C357.88 4.68 353.2 0 347.43 0Z" /><path class="shp0" d="M347.43 125.39L263.84 125.39C258.07 125.39 253.39 130.07 253.39 135.84L253.39 219.43C253.39 225.2 258.07 229.88 263.84 229.88L347.43 229.88C353.2 229.88 357.88 225.2 357.88 219.43L357.88 135.84C357.88 130.07 353.2 125.39 347.43 125.39Z" /><path class="shp0" d="M96.65 256L13.06 256C7.29 256 2.61 260.68 2.61 266.45L2.61 350.04C2.61 355.81 7.29 360.49 13.06 360.49L96.65 360.49C102.42 360.49 107.1 355.81 107.1 350.04L107.1 266.45C107.1 260.68 102.42 256 96.65 256Z" /><path class="shp0" d="M222.04 256L138.45 256C132.68 256 128 260.68 128 266.45L128 350.04C128 355.81 132.68 360.49 138.45 360.49L222.04 360.49C227.81 360.49 232.49 355.81 232.49 350.04L232.49 266.45C232.49 260.68 227.81 256 222.04 256Z" /><path class="shp0" d="M347.43 256L263.84 256C258.07 256 253.39 260.68 253.39 266.45L253.39 350.04C253.39 355.81 258.07 360.49 263.84 360.49L347.43 360.49C353.2 360.49 357.88 355.81 357.88 350.04L357.88 266.45C357.88 260.68 353.2 256 347.43 256Z" /></g></g></g></svg>