<svg xmlns="http://www.w3.org/2000/svg" viewBox="0 0 512 512" width="100" height="100">
	<style>
		tspan { white-space:pre }
		.shp0 { fill: #ffffff } 
	</style>
	<g >
		<path class="shp0" d="M399.98 402.42C400 401.35 400 400.27 400 399.2C399.57 320.74 335.56 256.6 257.11 256C177.2 255.4 112 320.23 112 400C112 401.11 112.01 402.22 112.04 403.33C113.13 451.35 146.87 492.48 193.44 504.22C213.76 509.35 234.77 512 256 512C277.23 512 298.24 509.35 318.55 504.23C365.45 492.4 399.18 450.78 399.98 402.42L399.98 402.42Z" />
		<path class="shp0" d="M437.01 74.97C388.94 26.91 323.98 0 256 0C187.62 0 123.33 26.63 74.98 74.98C26.63 123.33 0 187.62 0 256C0 316.35 21.4 374.94 60.26 421C64.78 426.37 69.54 431.55 74.5 436.54C77.96 440.02 83.82 436.87 82.92 432.05C81 421.65 80 410.94 80 400C80 326.97 124.71 264.19 188.2 237.59C191.49 236.21 192.34 231.88 189.76 229.41C170.68 211.2 159.07 185.23 160.06 156.61C161.79 106.63 202.23 66.01 252.21 64.07C306.86 61.96 352 105.81 352 160C352 187.27 340.56 211.92 322.24 229.41C319.66 231.88 320.51 236.21 323.8 237.59C387.29 264.19 432 326.97 432 400C432 410.94 431 421.65 429.07 432.05C428.18 436.87 434.03 440.01 437.5 436.53C442.46 431.55 447.22 426.36 451.75 421C490.6 374.94 512 316.35 512 256C512 187.62 485.37 123.32 437.01 74.97L437.01 74.97Z" />
		<path class="shp0" d="M256 224C220.61 224 192 195.39 192 160C192 124.61 220.61 96 256 96C291.39 96 320 124.61 320 160C320 195.39 291.39 224 256 224Z" />
	</g>
</svg>